<svg width="19" height="59" viewBox="0 0 19 59" fill="none" xmlns="http://www.w3.org/2000/svg">
<path d="M0.36364 29.4545V26.6364C2.89394 26.6364 4.65909 26.1061 5.65909 25.0455C6.67425 23.9848 7.18182 22.2121 7.18182 19.7273V12.4545C7.18182 10.3636 7.37879 8.55302 7.77273 7.02272C8.18182 5.49242 8.84091 4.22727 9.75 3.22727C10.6591 2.22727 11.8712 1.48484 13.3864 0.999996C14.9015 0.515146 16.7727 0.27272 19 0.27272V4.72727C17.2424 4.72727 15.8561 4.99999 14.8409 5.54545C13.8409 6.0909 13.1288 6.93939 12.7045 8.0909C12.2955 9.22727 12.0909 10.6818 12.0909 12.4545V21.5455C12.0909 22.7273 11.9318 23.803 11.6136 24.7727C11.3106 25.7424 10.7424 26.5758 9.90909 27.2727C9.07576 27.9697 7.88637 28.5076 6.34091 28.8864C4.81061 29.2651 2.81819 29.4545 0.36364 29.4545ZM19 58.4545C16.7727 58.4545 14.9015 58.2121 13.3864 57.7273C11.8712 57.2424 10.6591 56.5 9.75 55.5C8.84091 54.5 8.18182 53.2348 7.77273 51.7045C7.37879 50.1742 7.18182 48.3636 7.18182 46.2727V39C7.18182 36.5151 6.67425 34.7424 5.65909 33.6818C4.65909 32.6212 2.89394 32.0909 0.36364 32.0909V29.2727C2.81819 29.2727 4.81061 29.4621 6.34091 29.8409C7.88637 30.2197 9.07576 30.7576 9.90909 31.4545C10.7424 32.1515 11.3106 32.9848 11.6136 33.9545C11.9318 34.9242 12.0909 36 12.0909 37.1818V46.2727C12.0909 48.0455 12.2955 49.5 12.7045 50.6364C13.1288 51.7727 13.8409 52.6136 14.8409 53.1591C15.8561 53.7197 17.2424 54 19 54V58.4545ZM0.36364 32.0909V26.6364H5.72728V32.0909H0.36364Z" fill="black"/>
</svg>
